<svg width="24" height="24" viewBox="0 0 24 24" fill="none" xmlns="http://www.w3.org/2000/svg">
<path fill-rule="evenodd" clip-rule="evenodd" d="M20 12C20 12.5523 19.6258 13 19.1642 13L4.83582 13C4.37421 13 4 12.5523 4 12C4 11.4477 4.37421 11 4.83582 11L19.1642 11C19.6258 11 20 11.4477 20 12Z" fill="white"/>
<path fill-rule="evenodd" clip-rule="evenodd" d="M12 4C12.5523 4 13 4.37421 13 4.83582L13 19.1642C13 19.6258 12.5523 20 12 20C11.4477 20 11 19.6258 11 19.1642V4.83582C11 4.37421 11.4477 4 12 4Z" fill="white"/>
</svg>
