<svg width="24" height="24" viewBox="0 0 24 24" fill="none" xmlns="http://www.w3.org/2000/svg">
<path fill-rule="evenodd" clip-rule="evenodd" d="M15.6963 5.276C15.2913 4.908 14.6347 4.908 14.2297 5.276L14.8718 5.85946C14.2297 5.276 14.2297 5.27594 14.2297 5.276L14.1616 5.33802L13.9718 5.51165C13.8085 5.66131 13.5756 5.8756 13.2962 6.13477C12.7378 6.65271 11.9919 7.35165 11.2448 8.07294C10.5002 8.79181 9.74394 9.54298 9.16972 10.1626C8.88449 10.4704 8.62932 10.7616 8.44036 11.0084C8.34692 11.1304 8.25488 11.2607 8.18206 11.3889C8.13218 11.4767 8 11.713 8 12C8 12.287 8.13218 12.5234 8.18206 12.6112C8.25488 12.7394 8.34692 12.8696 8.44036 12.9917C8.62932 13.2385 8.88449 13.5297 9.16972 13.8375C9.74394 14.4571 10.5002 15.2082 11.2448 15.9271C11.9919 16.6484 12.7378 17.3473 13.2962 17.8653C13.5756 18.1245 13.8085 18.3387 13.9718 18.4884L14.1616 18.662L14.2284 18.7229L14.2296 18.724C14.2296 18.724 14.2297 18.7241 14.963 18.0577L15.6962 17.3914L15.6312 17.3322L15.4449 17.1617C15.2841 17.0143 15.054 16.8026 14.7779 16.5465C14.2251 16.0338 13.4896 15.3445 12.7552 14.6355C12.0183 13.924 11.2931 13.2028 10.7562 12.6235C10.5269 12.3761 10.3425 12.1658 10.2094 12C10.3425 11.8342 10.5269 11.624 10.7562 11.3765C11.2931 10.7972 12.0183 10.076 12.7552 9.36459C13.4896 8.65559 14.2251 7.9663 14.7779 7.45359C15.054 7.19743 15.2841 6.98579 15.4449 6.83834L15.6312 6.66788L15.6954 6.60944C16.1004 6.24145 16.1013 5.64399 15.6963 5.276ZM10.0251 12.2533C10.0145 12.2775 10.0107 12.2787 10.0251 12.2533C10.0253 12.2529 10.0249 12.2536 10.0251 12.2533ZM15.6963 18.7241C16.1013 18.3561 16.1012 17.7594 15.6962 17.3914L14.963 18.0577L14.2296 18.724C14.6346 19.0919 15.2913 19.0921 15.6963 18.7241Z" fill="#222628"/>
</svg>
