<svg width="24" height="24" viewBox="0 0 24 24" fill="none" xmlns="http://www.w3.org/2000/svg">
<path fill-rule="evenodd" clip-rule="evenodd" d="M20.7 16.0001C20.7 19.1481 18.148 21.7001 14.9999 21.7001L8.99995 21.7001C5.85193 21.7001 3.29995 19.1481 3.29995 16.0001L3.29995 10.9751L3.33736 10.4515C3.62517 6.42202 6.97807 3.30008 11.0178 3.30008L12.9821 3.30008C17.0218 3.30008 20.3747 6.42202 20.6625 10.4515L20.7 10.9751L20.7 16.0001ZM15 20.3001C17.3748 20.3001 19.3 18.3749 19.3 16.0001L19.3 11.025L19.2661 10.5512C19.0306 7.2544 16.2873 4.70008 12.9821 4.70008L11.0178 4.70008C7.71256 4.70008 4.96928 7.2544 4.7338 10.5512L4.69995 11.025L4.69995 16.0001C4.69995 18.3749 6.62513 20.3001 8.99995 20.3001L15 20.3001Z" fill="#5A5A5A"/>
<path fill-rule="evenodd" clip-rule="evenodd" d="M14.6334 9.99937C14.6338 9.61307 14.9471 9.30003 15.3335 9.30003C15.7201 9.30004 16.0335 9.61344 16.0334 10L15.3334 10C16.0334 10 16.0334 10.0004 16.0334 10.0008L16.0334 10.0016L16.0334 10.0034L16.0334 10.0081L16.0333 10.0209C16.0331 10.0311 16.0328 10.0444 16.0322 10.0606C16.0311 10.0931 16.0291 10.1374 16.0251 10.1919C16.0172 10.3008 16.0018 10.4516 15.9716 10.6307C15.9116 10.9856 15.7905 11.4694 15.5412 11.9615C15.2905 12.4565 14.9038 12.9715 14.312 13.361C13.7162 13.753 12.9541 13.9904 12.0001 13.9904C11.0461 13.9904 10.284 13.753 9.68822 13.361C9.09639 12.9715 8.70973 12.4565 8.45898 11.9615C8.20971 11.4694 8.08855 10.9856 8.02861 10.6307C7.99837 10.4516 7.98297 10.3008 7.9751 10.1919C7.97115 10.1374 7.96907 10.0931 7.96797 10.0606C7.96742 10.0444 7.96712 10.0311 7.96695 10.0209L7.96679 10.0081L7.96677 10.0034L7.96676 10.0016L7.96676 10.0008C7.96676 10.0004 7.96676 10 8.66676 10L7.96676 10C7.96676 9.61344 8.28015 9.30004 8.66675 9.30003C9.05236 9.30003 9.36515 9.61182 9.36675 9.99706C9.36675 9.9976 9.36676 9.99814 9.36676 9.99868C9.36676 9.99874 9.36676 9.9988 9.36676 9.99887C9.36676 9.99904 9.36676 9.99921 9.36676 9.99938C9.36676 9.99938 9.36676 9.99938 9.36676 9.99937L9.36676 9.99887L9.36676 9.99879L9.36676 9.99868L9.36675 9.99784L9.36675 9.99679C9.36675 9.99658 9.36675 9.99667 9.36675 9.99706C9.36675 9.99728 9.36676 9.99761 9.36677 9.99803L9.36717 10.0134C9.3677 10.0291 9.36888 10.0554 9.37144 10.0909C9.37659 10.162 9.38723 10.2682 9.40907 10.3976C9.45331 10.6596 9.54049 10.9984 9.70789 11.3289C9.87381 11.6564 10.1122 11.964 10.4578 12.1915C10.7995 12.4164 11.2874 12.5904 12.0001 12.5904C12.7128 12.5904 13.2006 12.4164 13.5424 12.1915C13.888 11.964 14.1264 11.6564 14.2923 11.3289C14.4597 10.9984 14.5469 10.6596 14.5911 10.3976C14.613 10.2682 14.6236 10.162 14.6288 10.0909C14.6313 10.0554 14.6325 10.0291 14.633 10.0134L14.6334 9.99803L14.6334 9.99878L14.6334 9.99937ZM14.6334 9.99803L14.6335 9.99783L14.6335 9.99678L14.6335 9.99669C14.6335 9.99676 14.6335 9.99721 14.6334 9.99803Z" fill="#5A5A5A"/>
</svg>
