<svg width="24" height="24" viewBox="0 0 24 24" fill="none" xmlns="http://www.w3.org/2000/svg">
<path fill-rule="evenodd" clip-rule="evenodd" d="M2.13496 10.5042C2.13497 5.97319 5.80811 2.30005 10.3392 2.30005H14.3808C18.4231 2.30005 21.7001 5.57704 21.7001 9.6194V13.4501C21.7001 17.5093 18.4094 20.8001 14.3501 20.8001H11.0132L7.72553 20.7441C6.44097 20.7222 5.15964 20.8796 3.91853 21.2115L3.45289 21.3361C2.36894 21.626 1.39756 20.5941 1.75239 19.5297C2.11317 18.4473 2.28477 17.3109 2.25964 16.1702L2.13513 10.5197L2.83496 10.5042H2.13496ZM3.53497 10.4967L3.6593 16.1394C3.68797 17.4408 3.49219 18.7374 3.08055 19.9724C3.07988 19.9744 3.07949 19.9759 3.07928 19.9769C3.07981 19.9778 3.08079 19.9794 3.08248 19.9812C3.08417 19.983 3.08563 19.984 3.08656 19.9846C3.08758 19.9845 3.08909 19.9842 3.09113 19.9836L3.55677 19.8591C4.92358 19.4935 6.33467 19.3202 7.74933 19.3443L11.0311 19.4H14.3501C17.6362 19.4 20.3001 16.7361 20.3001 13.4501V9.6194C20.3001 6.35023 17.6499 3.70005 14.3808 3.70005H10.3392C6.58382 3.70005 3.53904 6.74232 3.53497 10.4967Z" fill="#5A5A5A"/>
<path d="M9 12C9 12.5523 8.55228 13 8 13C7.44772 13 7 12.5523 7 12C7 11.4477 7.44772 11 8 11C8.55228 11 9 11.4477 9 12Z" fill="#5A5A5A"/>
<path d="M13 12C13 12.5523 12.5523 13 12 13C11.4477 13 11 12.5523 11 12C11 11.4477 11.4477 11 12 11C12.5523 11 13 11.4477 13 12Z" fill="#5A5A5A"/>
<path d="M17 12C17 12.5523 16.5523 13 16 13C15.4477 13 15 12.5523 15 12C15 11.4477 15.4477 11 16 11C16.5523 11 17 11.4477 17 12Z" fill="#5A5A5A"/>
</svg>
